<?xml version="1.0" encoding="UTF-8"?>
<svg xmlns="http://www.w3.org/2000/svg" version="1.1" viewBox="0 0 512 512">
  <defs>
    <style>
      .cls-1 {
        fill: #be1e2d;
      }
    </style>
  </defs>
  <!-- Generator: Adobe Illustrator 28.7.1, SVG Export Plug-In . SVG Version: 1.2.0 Build 142)  -->
  <g>
    <g id="Layer_1">
      <path class="cls-1" d="M433.84,349.7V46.02L249.13,1.56v-.08l-.18.04-.32-.08v.15L63.92,46.06v303.68s-5.1,64.87,184.71,160.57v.22c.07-.04.14-.07.21-.11.1.05.19.1.28.14v-.29c189.82-95.7,184.71-160.57,184.71-160.57ZM375.94,402.61c-14.39,10.39-28.85,20.69-43.32,30.99-10.54,7.51-21.09,15.02-31.61,22.56-10.7,7.67-27.29,18.11-47.75,20.1-.68.07-1.35.09-2.02.11l-1.17.04-1.17-.04c-.09,0-.18-.01-.27-.01h0c-.58-.02-1.17-.03-1.76-.09-20.46-1.99-37.05-12.42-47.74-20.1-10.54-7.56-21.11-15.09-31.68-22.61-14.44-10.28-28.87-20.56-43.24-30.94-25.26-18.24-37.68-38.72-39.08-64.44-.31-5.76-.3-11.57-.29-17.17v-2.4c.05-28.84.04-57.68.04-86.51l-.06-28.37v-32.64c0-26.59,0-53.18,0-79.77-.01-19.71,6.16-28.16,24.46-33.46,11.97-3.47,24.84-6.56,40.51-9.75,34.83-7.07,67.33-10.56,99.35-10.67h0c.19,0,.37,0,.56,0h.76c32.2.07,64.88,3.57,99.91,10.68,15.67,3.18,28.54,6.28,40.51,9.75,18.3,5.3,24.47,13.74,24.46,33.46-.01,26.59,0,53.18,0,79.77v36.96s-.06,0-.06,0v24.74c0,28.6-.02,57.21.03,85.81v2.55c.02,5.78.04,11.75-.27,17.48-1.38,25.4-13.8,45.73-39.09,63.99Z"/>
      <g>
        <g>
          <path class="cls-1" d="M160.31,306.04c.6-7.53-.2-15.26-.5-15.87-.3-.6-1.21-2.31-1.21-2.31,0,0-1.2,9.44-2.81,16.27-1.61,6.82-4.21,21.49-4.21,24.9s.8,4.82.8,4.82l.81.5-.11,2.41s2.41,4.01,2.61,5.12c.2,1.1,0-7.83,0-7.83,0,0,1.01-5.12.81-7.34-.2-2.21-.1-3.31,1.2-5.52,1.3-2.21,2.01-7.63,2.61-15.17Z"/>
          <path class="cls-1" d="M175.37,386.38c0,3.02-1.6,5.23-4.42,10.85-2.81,5.62-4.52,12.76-6.53,18.88-.85,2.6-1.84,5.32-2.73,8.02,5.73,4.08,11.44,8.18,17.17,12.26.68-2.46,1.44-8.12.43-12.64-1.11-4.92-3.52-18.68-2.91-24.3.6-5.62,2.31-10.94,2.1-12.55-.2-1.61,1.01-11.35,1.01-11.35,0,0-4.12,7.84-4.12,10.84Z"/>
          <path class="cls-1" d="M236.03,293.36l-1.91-.36s-.49,3.11-1.63,4.16c0,0-.59,2.25-1.73,3.21,0,0-.55,4.69-2.61,6.32,0,0-1.48,3.64-3.69,4.53-2.22.89-2.19,1.65-2.19,1.65l.31.66s.59.82-.21,1.26l-.21,4.92,6-7.57s.86-.5.86,1.52c0,0,2.4-.43,3.6,2.75,0,0-.03-2.55,1.51-3.94,0,0,.43-.79-.31-1.25,0,0-.12-2.31.16-3.87.27-1.55.03-2.15.03-2.15,0,0,.21-1.09,1.29-1.79,0,0-.06-1.43.12-1.55.19-.14-.03-.1-.03-.1,0,0,.06-1.09.58-1.55,0,0-1.48-.76.06-6.85Z"/>
          <path class="cls-1" d="M282.38,299.51s-.24-3.04-.86-3.8l-1.78-3.47.37,3.9s2.83,4.56,2.77,6.98c0,0,2.46,4.03,2.09,8.5,0,0,1.75,4.67.74,11.05,0,0,1.26,13.36.92,17.26,0,0,.52-1.39.46-2.31,0,0-.55-2.91.71-4.13l.18-.53-.18-.33,1.9-8.34s-.43-.5-.43-1.45c0,0-.37-2.48.62-3.17l.73-.89s-.83-1.3-.83-2.02c0,0-.65-.99-.59-2.94,0,0-.4-1.07-.95-1.46,0,0-1.91-2.08-2.28-6.41l-1.23-2.15s-.25.26-.52-.2c0,0-1.63-3.74-1.85-4.07Z"/>
        </g>
        <path class="cls-1" d="M349.85,410.69c-.66-3.01-1.32-6.03-1.97-9.04-.51-2.22-1.01-4.44-1.52-6.65-7.73.19-15.48.39-23.21.58-1.43,8.13-2.87,16.26-4.32,24.39.11,1.48.23,2.95.35,4.43.45,2.84.54,5.26.88,7.54,2.52-1.8,5.03-3.6,7.56-5.39,7.42-5.28,14.83-10.56,22.24-15.86Z"/>
        <path class="cls-1" d="M199.98,235.44c-.7.2-2.01.8-3.11-.2-1.11-1-2.81-.1-1.71.41,1.1.5,4.71.5,4.41,4.12-.3,3.62-1.91,1.9-1.71,1.41.2-.5,3.02-.5,0-2.21-3.01-1.7-5.62-1.31-5.62-1.31,0,0,2.01,1.91,2.71,1.91s1.11.3,1.11.3c0,0-1.31,1.71-2.61.4-1.3-1.3-2.91-2.71-2.91-2.71,0,0,1.21,2.01,1.91,5.23.7,3.21-1.61,5.62-1.61,5.62,0,0,6.63,2.61,8.13,2.91,1.51.3,6.73,11.95,6.53,14.26-.2,2.31-2.61,1.71-3.21,1.71s4.52,3.41,2.62,8.54c-1.91,5.12-2.92,4.02-3.01,7.23-.1,3.21.7,9.14,1.9,14.06,1.21,4.92,2.21,9.94,3.52,20.59,1.3,10.64,2.61,14.66,4.42,19.79,1.81,5.12,2.21,9.64.7,12.85-1.51,3.21-6.23,2.92-6.53,2.92s-2.31-.1-2.31-.1l-1-1,.2,1.91-1.6,1.1s-2.91,9.24-4.82,15.97c-1.91,6.73-3.02,6.33-3.22,9.54-.2,3.21-1.21,8.44-1.21,8.44,0,0,1.81,11.35-.2,22.6-2.01,11.25-1.81,21.09-1.91,22.7-.05.86.47,3.08,1.28,5.42,4.35,3.11,8.71,6.2,13.05,9.32.09.06.17.12.25.18.97-1.27,2.03-2.57,2.03-2.57l3.37-4.67.1-.65s.28-1.24.6-1.73c.02-.03.04-.07.05-.1.2-.45-.28-.74-.28-.74l-1.62-.11-2.31-5.05,2.17-1.54c1.58-1.19,2.18-1.04,2.18-1.04l2.63-3.27c-.47-.65-1.38-2.58-.47-5.61.93-3.02,1.8-4.32,1.8-4.32-.55-.35-.51-1.44-.51-1.44-.18-2.38,1.29-10.32,1.29-10.32.27-1.34,1.29-7.59,1.29-7.59.97-2.13,1.2-4.71,1.2-4.71-.28-5.5,2.35-12.01,2.35-12.01.74-2.28.97-5.75.97-5.75.19-3.42,1.47-6,1.47-6,1.76-2.63,1.48-6.45,1.48-6.45-.04-2.62,1.8-7.98,1.8-7.98.78-1.48.78-3.12.78-3.12-.46-2.33.65-8.48.65-8.48-.14-3.37,1.38-6.7,1.38-6.7-.41-3.72,1.16-6,1.16-6-.22-1.49.6-4.56.6-4.56.19-.55.47-3.52.47-3.52l-6.65,9.18c-2.36,3.67-2.86,2.73-2.86,2.73.09.75-.83.99-.83.99-1.2,1.44-2.03,0-2.03,0-1.06-.55-2.68-1.88-2.68-1.88-.37-.85-1.8-1.49-1.8-1.49-1.16-.4-1.25-1.59-1.25-1.59.33-1.49.51-4.71.51-4.71-.65-.5-1.11-1.19-1.11-1.19-.74-2.23-1.43-9.23-1.43-9.23.83-.69.88-3.23.88-3.23,1.39-4.96,3.56-8.03,3.56-8.03,1.1-.55.64-1.39.64-1.39-2.21-2.03-2.59-3.82-2.59-3.82-.88-2.98,1.71-14.58,2.31-17.12.6-2.53,2.04-10.96,2.73-14.98.69-4.02,5.59-22.03,5.59-22.03,1.9-7.99,3.28-9.47,5.49-12.8,2.22-3.32,9.79-5.36,11.5-5.76,1.71-.39,9.98-3.07,9.98-3.07l1.89-3.38c.83-1.58,1.99-2.03,1.99-2.03.37-1.88,0-5.75,0-5.75l-1.02.05c-1.52-.5-.92-2.28-.92-2.28.96.4.64-.69.64-.69-.92.35-1.61-.6-1.61-.6,0,0,.09-.69-.79-2.03-.88-1.35-1.11-3.18-1.11-3.18-1.01-2.29.79-4.12.79-4.12-4.02-2.18.23-6.4.23-6.4.05-2.13.6-2.53.6-2.53,0,0-.46-2.63.32-3.77.78-1.14.69-1.73.69-1.73-.6-.35-.18-.85-.18-.85l.78-.2c.09-.5.97-.54.97-.54.14-1.29,1.38-1.1,1.38-1.1-.04-.99,1.12-1.04,1.12-1.04,2.03-2.93,4.38-2.13,4.38-2.13.42-.79,1.72-1.14,1.72-1.14.87-.75,2.02-.2,2.02-.2,1.3-2.48,2.82-1.09,2.82-1.09,1.8-.59,2.12.89,2.12.89,1.65-.15,2.17,1.19,2.17,1.19,2.77.15,3.83,2.43,3.83,2.43,1.9-.35,1.25,1.83,1.25,1.83,0,0,1.47,1.09,1.47,1.99s-.65,1.68-.65,1.68c0,0,1.38,1.04,1.52,1.49.14.44-.64.79-.64.79,1.8.1.73,1.39.73,1.39,1.15.4.32,2.14.32,2.14l.65.49c.23.45-.51,1.09-.51,1.09,0,0,.69.35.09,1-.6.64-.32,2.23-.32,2.23-.51,0-.27,1.14-.27,1.14.78-.3,1.11.3,1.11.3.55.6-.56,1.98-.56,1.98.74,1.04-.79,1.54-.79,1.54,1.57,1.98-.37,4.36-.37,4.36-.65.6-1.34,1.94-1.34,1.94-.41,1.19-1.61,1.64-1.61,1.64,0,0,.09.54-.56,1.43-.64.89-1.52,2.58-1.52,2.58.6,1.04-.46,1.39-.46,1.39-.28.34-1.57-.1-1.57-.1l.37.59c-.09.5-1.2.4-1.2.4l-.55,1.49c-.67.93-.56,2.58-.56,2.58.49.13.68.73.68.73l1.11,4.96c1.53.59,2.71,1.92,2.71,1.92l2.89,1.72c1.85.99,9.48,6.35,9.48,6.35,3.26,2.05,5.35,6.35,5.35,6.35,1.23,1.92,3.3,10.18,3.91,12.2.62,2.02,3.38,19.18,3.81,21.56.43,2.38,3.54,22.09,3.54,24s-1.88,8.44-1.88,8.44c0,0,1.88,1.85,2.03,4.99.15,3.14-1.69,6.58-1.69,6.58.09,2.45-1.02,3.97-1.02,3.97.28.89-.37,2.68-.37,2.68l-.27,7.77c0,.86-.96.36-.96.36l-.03.33c1.02,1.39-.3,3.77-.3,3.77.71,1.52-.1,3.07-.1,3.07-.64,2.02-1.81,1.82-1.81,1.82-.18.69-.18.4-.55,1.02,0,.01-.01.03-.02.04-.39.61-1.68,1.09-1.68,1.09-1.59,1.79-3.47,1.25-3.47,1.25-.37.53-1.02.43-1.02.43-1.23,2.48-2.12,1.33-2.12,1.33-.86-1.66,1.08-3.08,1.08-3.08.28-.6,1.66-2.19,1.66-2.19-.22-1.16.71-3.24.71-3.24-.06-.39-.04-1.65-.04-1.65,0-1.58-.83-2.61-.83-2.61-.68-.79-.89.1-.89.1.37,1.68-.74,3.3-.74,3.3.21,1.89-.71,4.13-1.36,4.54-.65.39-1.14.1-1.14.1l-.79,6.35s1.35,5.95-.25,11.84c-1.6,5.88-.62,13.56-.62,13.56,2.03,6.88-2.03,14.02-2.03,14.02,1.78,5.82-3.2,19.12-3.2,19.12.49,2.05-1.05,10.31-1.05,10.31.37,5.43-.18,7.61-1.29,11.45-1.11,3.83-2.46,3.23-2.46,3.23,5.11,3.18.31,7.93.31,7.93,1.54,2.32,7.38,9.66,7.38,9.66,1.48,2.05-.49,2.97-.49,2.97-3.26,2.71-12.43,2.39-12.43,2.39-6.58-1.78-4.68-6.55-4.68-6.55.37-.73-.43-1.92-.43-1.92-2.03-.46-5.48-2.12-5.48-2.12-2.71-.59-.93-5.55-.93-5.55.86-.53.25-2.25.25-2.25-2.77-.86-2.71-3.77-2.71-3.77-2.03-2.12.98-3.77,1.73-4.7.74-.92,1.97-1.78,1.97-1.78-.99-1.92.12-4.17.12-4.17l.13-4.76,1.48-26.79c-.99-1.92-.19-6.09-.19-6.09-1.17-5.16,2.71-10.37,2.71-10.37,0-1.39-3.45-14.95-3.45-14.95-1.84-3.9-1.66-6.75-1.66-6.75l.49-8.14-.61-6.54c-.5-1.59-1.17.06-1.17.06.06.53-1.1,3.97-1.1,3.97,0,1.52-2.4,7.15-2.4,7.15-.74,4.23-5.54,19.18-5.54,19.18-.37,3.77-2.52,11.37-2.52,11.37-.06,8.93-4.31,12.9-4.31,12.9-.62,3.77-2.77,8.53-2.77,8.53-1.23,8.27-4.62,16.86-4.62,16.86-1.97,5.69-3.45,6.38-3.45,6.38-2.54,2.85-2.13,5.46-2.13,5.46,1.41,4.04-1.16,6.77-1.16,6.77,1.67,2.11-1.08,4.59-1.08,4.59,1.34,3.17-1.52,4.41-1.52,4.41-2.86,2.68-5.77,2.73-5.77,2.73-.74.7-.6,1.74-.6,1.74.18.3,0,1.24,0,1.24-.45,1.3-1.04,2.3-1.69,3.1,4,2.28,7.89,4.17,11.72,5.71.09.04.18.07.27.11,1.25.5,2.5.96,3.74,1.37.03.01.07.02.1.03,1.14.38,2.29.73,3.43,1.05.2.06.41.12.61.17,1.18.32,2.36.61,3.54.87.06.01.13.02.19.04,1.08.23,2.16.43,3.25.6.29.05.58.09.86.14,1.15.17,2.3.32,3.46.44.48.05.95.06,1.42.07.31,0,.63.02.94.03.31-.01.63-.02.94-.03.47-.01.94-.02,1.41-.07,14.2-1.38,27.63-7.09,43.55-18.52,2.55-1.83,5.11-3.64,7.66-5.47,1.06-2.45,2.11-4.9,3.17-7.35.5-2.76,1.01-5.52,1.52-8.28-.27-10.81-.54-21.62-.82-32.43-2.95-.08-5.91-.15-8.87-.23.62-4.9,1.24-9.8,1.87-14.7.19-3.77.39-7.54.58-11.32,1.41-9.01.91-18.2,2.33-26.84,1.2-12.79,2.41-25.59,3.61-38.38,1.32-14.62,2.64-29.24,3.97-43.86.35-6.18.7-12.37,1.05-18.55,1.44-5.09,2.88-10.19,4.32-15.28-.19-.82-.39-1.64-.59-2.45-.69-2.95-1.63-6.56-.58-9.91.99-3.17,3.22-5.95,4.78-8.64,1.44-2.46,3.92-9.59,4.43-12.6-.19-1.21-.39-2.41-.58-3.62-1.01-5.38-2.31-9.57-2.33-15.52-5.52,1.71-11.05,3.42-16.57,5.13,8.2-7.23,16.41-14.47,24.62-21.7,9.34-.5,18.67-1.01,28-1.52v.12c-2.99,2.14-5.99,4.28-8.98,6.42h-.23c2.84,3.58,5.46,4.03,7,9.57.68,2.45-1.37,5.21-.23,7.7.99,2.16,3.58,3.03,4.31,4.78.17.53-.17,1.17-.35,1.75-.77.08-1.55.16-2.33.23-.38,1.41.24,2.43.47,3.5-.31.35-.62.7-.93,1.05.24.31.46.63.7.93-.31.27-.62.54-.93.82-.75,1.05-.58,2.07-.58,3.74-1.8,1.7-3.97,1.84-7.7,1.75-.74,1.09-1.48,2.18-2.22,3.27.71,3.08,3.55,4.03,5.02,6.3.89,2.25,1.79,4.51,2.68,6.77.59,2.64,1.17,5.29,1.75,7.93,1.52,4.98,3.03,9.95,4.55,14.93.7,2.45,1.4,4.9,2.1,7.35.84,1.32,8.95,6.68,10.62,7.23,4.47.35,8.94.7,13.41,1.05,2.74-2.14,4.31-4.12,9.33-4.2.66-5.4,2.35-13.78,4.9-17.38.67.15,1.33.31,1.99.47.31.5.63,1.01.94,1.51-1.24,5.1-2.49,10.19-3.74,15.28.5.39,1.01.78,1.52,1.17.06,2.08-.74,3.89.11,5.25-.58,1.19-1.43,2.16-2.56,2.8.35.68.68,1.2.7,2.22-1.13,1.34-1.79,2.23-3.97,2.57-1.09,4.43-2.17,8.87-3.26,13.3-.59.62-1.16,1.24-1.75,1.87-.73-.15-1.47-.31-2.21-.47-2.18-1.64,1.88-11.06,2.33-13.88-.35-.58-.7-1.17-1.05-1.75-.4-.2-.93-.26-1.63-.23-2.88,2.2-5.48,7.94-7.47,11.2-3.57,5.86-7.34,10.93-12.83,14.82,1.13,11.32,2.26,22.63,3.38,33.95.31,6.54.62,13.07.93,19.6-.35,6.34-.7,12.68-1.05,19.02-.16,4.2-.31,8.4-.47,12.6-.12,7-.23,14-.35,21-2.26-.08-4.51-.16-6.76-.24.01,2.65.11,5.35.24,8.05,2.65-1.9,5.31-3.8,7.95-5.71,23.32-16.84,34.27-34.55,35.52-57.45.3-5.47.28-11.33.26-16.98v-2.56c-.05-28.61-.04-57.22-.04-85.83l.06-33.39v-28.31c0-26.59,0-53.19,0-79.78,0-15.78-3.74-20.95-18.22-25.14-11.74-3.4-24.39-6.44-39.82-9.58-34.46-7-66.59-10.43-98.21-10.5h-.72c-31.62.07-63.75,3.51-98.21,10.5-15.43,3.13-28.08,6.17-39.82,9.58-14.48,4.19-18.23,9.36-18.22,25.14.01,26.59,0,53.19,0,79.78v28.33s.06,4.3.06,4.3v28.37c0,28.84.01,57.68-.03,86.53v2.41c-.02,5.74-.03,11.16.27,16.68.07,1.29.18,2.55.32,3.81.04.4.09.79.14,1.18.11.88.23,1.75.37,2.62.07.43.14.85.21,1.28.17.95.37,1.9.58,2.83.06.28.11.56.18.84.27,1.13.58,2.24.91,3.35.14.48.3.96.46,1.43.22.68.45,1.35.69,2.02.19.51.37,1.02.57,1.53.27.68.55,1.35.84,2.02.19.45.37.9.58,1.34-.63-3.16-1.29-6.32-1.74-9.51-.59-4.12.85-9.33,1.08-13.52.17-2.95-.53-7.23.34-9.97,2.64-8.25,3.73-16.64,6.86-24.75,1.69-4.41,3.31-8.89,5.33-13.15.7-1.5,2.22-2.87,2.43-4.47.14-.99-5.35-4.34-6.4-5.28-.62-.55-3.72-3.16-3.72-3.02-.56-.6-2.5-4.15-2.67-3.63.07-.61.02-1.19-.16-1.76-.19.22,0,.22-.28.75.13-.37-.03-1.36-.31-1.77-.31-.4-.37-.61-.43.09-1.19-2.73-2.13-5.63-1.02-8.41.47-1.17-1.68-2.06-.23-2.61,1.26-.5.73-2.74,1.49-3.72.2-.24,2.11,1.02,1.92-.18-.16-1.1-.62-2.99,1.23-2.67,1.76.3,3.57-1.83,5.48-1.86,1.55-.03,11.86-2.13,12.41-.46-.18-.56,6.52,2.53,4.42,3.33-1.71.65,3.49,4.09,3.92,5.09.48,1.12,2.59,4.16,3.49,4.2-3.12,2.16,5.18,3.53,3.28,6.63-.76,1.25,1.97,6.02,1.37,7.95-.91,2.85-8.21,3.18-7.96,5.37.05.58,3.94,3.22,4.65,3.86.59.52,1.69,3.96,1.07,4.71-1.14,1.39-.85-.33-.72,2.58.05,1.27.35,2,.81,3.16,1,2.51,1.93,4.85,2.46,7.5,1.2,5.99,3.19,12.95,2.7,19.14-.55,7.1-.88,14.74-.41,21.86.33,5,2.73,11.48,1.77,16.52-.06.27-.93-1.43-1-1.4-.6.32,0,1.19-1.12,1.72-1.61.75-.5.43-1.28,1.37-1.3,1.56-3.98,1.36-5.38,2.55-.21.18,3.2,4.31,2.77,5.69-.58,1.83.71,3.44.39,5.16-.21,1.11-3.91,2.02-4.87,1.89-.79-.12-3.65-1.16-4.05-1.09-.85.13-.85,10.48-1.1,11.96-.07.38-.22.86-.4,1.39,1.06.81,2.12,1.63,3.24,2.43,6.58,4.75,13.18,9.48,19.79,14.2.88-7,3.24-14.2,6.14-17.18,3.31-3.41,3.51-7.73,3.72-9.44.2-1.71-1.51-23.5-1.51-23.5l-2.81-.9v-1.91s-10.74-4.72-10.64-8.94c.1-4.22-.2-25.81.3-32.64.51-6.83,1.3-18.88,2.11-22.3.8-3.41,1.4-16.27,1.4-18.07s-.3-5.63-.3-5.63l-4.02-.9s3.31-6.23,4.42-9.84c1.1-3.62,6.13-8.04,6.83-8.84.71-.8,10.45-3.91,11.15-5.22.7-1.31-.1-4.12-.1-4.12,0,0-5.12-.31-5.12,2.31s-4.02,2.41-.91-2.91c3.11-5.32,3.82-6.43,3.82-8.53s1.3-11.25,1.41-14.56c.1-3.31,1.6-8.64,8.43-10.65,6.83-2.01,12.15,1.3,14.76,5.02,2.61,3.72,3.81,8.53,4.92,12.55,1.1,4.02,4.11,5.72,5.22,4.52,1.1-1.21,1.41-2.11.7-2.21-.7-.1-2.41-.9-2.41-.9,0,0,6.73,0,5.92,3.42-.8,3.21-2.41,2.31-2.41,2.31,0,0,4.02,3.31,3.32,5.52-1.21-.9-2.71-1.01-3.42-.8"/>
      </g>
    </g>
  </g>
</svg>